<?xml version="1.0" standalone="no"?>
<!DOCTYPE svg PUBLIC "-//W3C//DTD SVG 20010904//EN"
 "http://www.w3.org/TR/2001/REC-SVG-20010904/DTD/svg10.dtd">
<svg version="1.0" xmlns="http://www.w3.org/2000/svg"
 width="1600.000000pt" height="1600.000000pt" viewBox="0 0 1600.000000 1600.000000"
 preserveAspectRatio="xMidYMid meet">
<metadata>
Created by potrace 1.11, written by Peter Selinger 2001-2013
</metadata>
<g transform="translate(0.000000,1600.000000) scale(0.100000,-0.100000)"
fill="#000000" stroke="none">
<path d="M7837 12153 c-2 -2 -30 -5 -63 -8 -32 -2 -59 -5 -59 -5 0 -1 -12 -4
-28 -6 -15 -3 -62 -14 -105 -25 -42 -11 -83 -21 -89 -21 -7 -1 -13 -6 -13 -11
0 -6 -3 -8 -6 -5 -10 10 -278 -100 -294 -121 -3 -3 -25 -16 -50 -29 -144 -75
-373 -271 -495 -426 -16 -21 -36 -44 -42 -51 -7 -8 -13 -18 -13 -23 0 -6 -3
-12 -8 -14 -23 -10 -132 -204 -203 -363 -36 -80 -92 -292 -103 -390 -2 -16 -8
-57 -12 -90 -4 -33 -8 -77 -8 -97 -1 -21 -3 -38 -6 -38 -3 0 -7 -11 -8 -26 -2
-32 -19 -64 -45 -86 -22 -20 -20 -19 -97 -24 -66 -3 -175 -12 -175 -14 0 -2
-10 -4 -55 -13 -64 -14 -187 -59 -262 -97 -123 -62 -229 -142 -353 -265 -125
-125 -183 -199 -209 -267 -22 -59 -38 -69 -85 -53 -64 21 -121 48 -121 57 0 4
-8 8 -18 8 -10 0 -22 4 -28 9 -14 14 -214 91 -234 91 -11 0 -21 4 -24 9 -3 5
-18 11 -33 14 -16 3 -46 10 -68 16 -72 17 -89 21 -129 27 -22 3 -43 7 -46 9
-5 3 -75 13 -150 22 -62 7 -463 11 -475 4 -5 -3 -28 -6 -50 -7 -22 -1 -56 -5
-75 -9 -19 -4 -46 -8 -60 -10 -14 -3 -36 -7 -50 -10 -14 -3 -38 -8 -55 -11
-39 -7 -41 -8 -95 -23 -25 -7 -52 -14 -60 -16 -73 -15 -345 -134 -362 -159 -4
-6 -8 -8 -8 -3 0 4 -22 -9 -50 -28 -27 -19 -52 -35 -55 -35 -6 0 -109 -73
-135 -96 -8 -8 -47 -40 -86 -73 -86 -72 -160 -145 -234 -232 -30 -35 -63 -73
-73 -84 -10 -11 -32 -41 -49 -67 -17 -27 -35 -48 -40 -48 -4 0 -8 -7 -8 -15 0
-8 -5 -15 -12 -15 -6 0 -9 -3 -5 -6 3 -4 -4 -21 -16 -38 -13 -17 -30 -44 -37
-61 -8 -16 -18 -32 -22 -35 -17 -13 -91 -191 -123 -297 -57 -187 -63 -190
-427 -227 -38 -4 -75 -9 -144 -21 -35 -5 -174 -45 -254 -72 -83 -28 -263 -112
-268 -125 -2 -4 -9 -8 -16 -8 -30 0 -237 -155 -336 -252 -161 -157 -304 -409
-334 -588 -3 -19 -8 -46 -11 -60 -7 -34 -8 -209 -1 -240 4 -14 8 -37 11 -51 3
-15 17 -60 31 -100 14 -41 26 -80 26 -86 1 -7 5 -13 9 -13 4 0 11 -9 14 -21
22 -70 146 -233 250 -330 81 -75 176 -149 193 -149 5 0 12 -4 14 -9 2 -5 19
-18 38 -30 36 -21 229 -117 265 -131 39 -16 90 -35 95 -36 3 0 12 -3 20 -7 19
-7 118 -34 150 -41 14 -3 35 -7 47 -10 56 -14 70 -17 108 -21 22 -2 51 -6 65
-9 14 -3 66 -8 115 -11 251 -17 306 -25 410 -59 56 -18 154 -85 244 -166 32
-30 187 -127 251 -157 36 -18 94 -41 130 -53 36 -12 72 -25 80 -28 36 -13 94
-21 185 -27 38 -2 71 -9 73 -15 2 -5 9 -10 17 -10 10 0 17 -15 29 -70 2 -10
51 -75 58 -78 4 -2 8 -9 8 -15 0 -7 53 -64 118 -127 116 -112 151 -144 208
-185 15 -11 32 -25 38 -30 45 -42 200 -120 254 -128 17 -3 36 -8 42 -12 5 -3
22 -8 35 -11 14 -2 36 -6 50 -9 109 -22 170 -27 330 -30 134 -2 235 4 318 20
15 3 42 8 60 11 17 3 64 14 102 26 66 19 111 38 263 110 l63 30 22 -23 c13
-13 53 -52 89 -86 36 -34 63 -65 60 -68 -3 -3 -1 -5 5 -5 5 0 39 -28 75 -63
72 -69 151 -137 177 -151 9 -5 18 -12 21 -16 8 -10 158 -110 166 -110 4 0 15
-6 23 -14 19 -17 306 -161 341 -171 14 -4 41 -14 60 -22 65 -28 75 -32 142
-53 36 -12 76 -22 87 -23 12 -1 21 -5 21 -10 0 -5 6 -7 13 -4 6 2 20 0 29 -5
22 -11 95 -26 308 -63 53 -10 199 -19 295 -18 153 1 310 21 475 63 70 17 75
18 75 20 0 1 11 3 24 6 24 4 101 28 131 41 8 3 24 8 34 10 11 2 25 8 33 14 7
6 13 8 13 4 0 -4 6 -2 13 4 8 6 22 12 33 14 10 2 40 13 67 25 26 12 49 22 52
22 11 1 242 124 279 149 23 14 46 28 51 31 6 3 60 38 120 79 113 76 132 85
151 70 6 -5 19 -10 30 -12 10 -2 29 -8 40 -15 12 -6 24 -9 27 -6 3 3 13 1 24
-4 29 -15 118 -48 153 -57 8 -2 40 -13 72 -23 31 -11 59 -18 62 -15 3 4 6 2 6
-4 0 -5 6 -10 13 -11 6 0 32 -6 57 -12 25 -7 54 -14 65 -17 37 -9 110 -24 140
-29 55 -9 80 -13 100 -18 122 -25 733 -27 774 -1 4 2 27 6 51 9 106 14 128 18
185 32 33 9 67 17 75 19 13 3 79 19 120 30 8 2 17 4 20 6 3 1 10 3 15 4 6 1
17 5 25 8 8 3 55 20 103 38 48 17 90 36 93 40 2 4 11 6 19 2 8 -3 15 -1 15 3
0 5 27 20 60 34 33 14 60 28 60 33 0 4 7 7 15 7 16 0 95 48 107 65 4 5 8 7 8
2 0 -8 45 19 74 45 11 10 23 18 27 18 4 0 14 6 21 13 7 7 33 28 58 47 25 19
50 39 56 45 6 5 33 28 60 50 26 22 60 52 76 67 16 16 31 28 33 28 3 0 96 90
207 200 111 110 206 200 211 200 4 0 29 -9 55 -21 26 -11 61 -26 77 -34 70
-31 231 -98 240 -100 5 -1 17 -5 25 -8 12 -5 68 -21 113 -33 4 -1 8 -2 10 -3
1 -2 13 -4 27 -7 14 -2 45 -9 70 -14 128 -29 363 -41 500 -26 25 3 64 7 87 10
23 2 50 7 60 10 10 3 32 8 48 11 55 9 70 13 140 35 116 37 148 48 190 65 57
25 79 33 89 33 5 0 12 4 15 9 3 5 24 17 46 27 22 11 59 32 82 47 23 16 44 29
48 29 3 0 11 5 18 10 32 27 58 48 82 66 15 10 39 30 55 44 15 14 49 44 76 67
27 23 76 67 109 98 101 94 172 114 270 75 17 -6 37 -13 45 -16 8 -2 48 -12 87
-23 40 -11 95 -22 121 -24 27 -2 53 -6 58 -9 13 -6 221 -2 269 6 22 4 65 12
95 19 30 6 60 12 65 13 6 0 17 4 25 7 8 4 37 14 63 22 26 9 68 25 93 35 24 11
47 19 49 19 3 0 17 9 32 21 14 11 32 20 39 20 8 0 14 5 14 10 0 6 5 10 11 10
12 0 124 77 173 120 68 58 176 175 176 190 0 5 4 10 8 10 14 0 93 129 137 225
37 79 66 165 81 238 2 12 8 38 12 57 14 70 7 321 -12 395 -20 83 -56 186 -68
200 -4 5 -8 17 -8 27 0 10 -4 18 -10 18 -5 0 -10 6 -10 13 0 12 -82 144 -116
187 -20 25 -172 177 -198 198 -8 6 -20 12 -26 12 -5 0 -10 4 -10 8 0 13 -119
87 -213 133 -85 42 -190 80 -267 99 -25 6 -53 13 -62 15 -45 12 -70 15 -168
20 -131 8 -165 18 -178 53 -6 15 -10 34 -10 42 2 52 -60 271 -83 295 -5 5 -9
15 -9 21 0 7 -5 25 -12 41 -6 15 -11 31 -10 36 1 4 -2 7 -8 7 -5 0 -10 5 -10
12 0 16 -96 204 -131 256 -16 24 -29 47 -29 51 0 4 -9 16 -20 26 -11 10 -20
24 -20 31 0 7 -3 14 -8 16 -6 2 -44 49 -87 107 -5 7 -64 68 -130 135 -110 112
-137 137 -222 203 -95 75 -216 157 -228 154 -4 -1 -12 4 -18 12 -7 8 -37 27
-67 43 -30 16 -57 31 -60 34 -7 8 -119 60 -123 57 -1 -1 -17 8 -34 21 -18 13
-33 21 -33 18 0 -3 -24 6 -52 18 -47 21 -82 36 -98 41 -3 1 -12 4 -20 8 -85
35 -319 102 -430 123 -14 2 -31 7 -39 10 -8 2 -37 7 -65 10 -28 3 -54 8 -57 9
-3 2 -30 7 -60 10 -30 4 -65 8 -79 10 -51 8 -268 19 -350 18 -96 0 -365 -18
-365 -23 0 -1 -13 -3 -30 -5 -16 -1 -30 -3 -30 -5 0 -1 -11 -3 -25 -5 -28 -3
-83 -12 -120 -20 -14 -3 -43 -10 -65 -14 -47 -10 -171 -44 -235 -64 -25 -8
-56 -13 -70 -10 -26 4 -53 30 -45 44 6 8 -34 121 -45 129 -4 3 -14 19 -23 37
-9 17 -22 37 -29 45 -7 7 -24 29 -38 48 -52 74 -198 226 -285 297 -53 43 -151
100 -181 105 -11 2 -21 6 -24 9 -6 7 -180 61 -250 77 -47 12 -96 20 -158 28
-59 7 -131 34 -153 57 -20 22 -49 78 -65 127 -9 28 -11 35 -18 68 -3 12 -8 27
-11 32 -4 6 -8 23 -11 38 -2 15 -8 36 -13 47 -5 11 -17 45 -26 75 -16 51 -121
279 -134 290 -3 3 -12 17 -20 33 -8 15 -18 27 -23 27 -4 0 -8 6 -8 13 0 6 -16
32 -35 57 -19 25 -45 59 -57 75 -25 33 -205 215 -253 255 -16 14 -66 50 -110
80 -44 30 -82 57 -85 60 -19 19 -218 119 -224 113 -3 -4 -6 -2 -6 3 0 6 -17
16 -37 23 -21 8 -49 18 -63 24 -14 6 -28 11 -32 12 -5 2 -10 4 -13 5 -3 1 -8
3 -12 4 -5 1 -39 11 -78 23 -70 21 -199 49 -271 59 -45 6 -352 12 -357 7z
m-7412 -5743 l30 -35 -32 29 c-18 17 -33 34 -33 40 0 5 1 7 3 5 1 -2 16 -20
32 -39z m66 -67 c17 -16 43 -39 58 -52 14 -14 77 -58 139 -99 111 -73 140 -96
81 -64 -77 42 -184 116 -234 163 -22 20 -51 46 -65 58 -14 11 -22 20 -17 21 4
0 21 -12 38 -27z m353 -252 c-2 -3 -12 3 -22 13 -16 17 -16 18 5 5 12 -7 20
-15 17 -18z"/>
</g>
</svg>
